<?xml version="1.0" encoding="UTF-8"?>
<svg width="24px" height="24px" viewBox="0 0 24 24" version="1.1" xmlns="http://www.w3.org/2000/svg" xmlns:xlink="http://www.w3.org/1999/xlink">
    <title>icon/material/copy@3x</title>
    <g id="icon/material/copy" stroke="none" stroke-width="1" fill="none" fill-rule="evenodd">
        <g id="ic-baseline-content-copy">
            <g id="Icon" transform="translate(2.000000, 2.000000)" fill="#00232E">
                <path d="M15,0 L2,0 C0.9,0 0,0.9 0,2 L0,15 L2,15 L2,2 L15,2 L15,0 Z M17.8666667,4 L6.13333333,4 C4.96,4 4,4.8 4,5.77777778 L4,18.2222222 C4,19.2 4.96,20 6.13333333,20 L17.8666667,20 C19.04,20 20,19.2 20,18.2222222 L20,5.77777778 C20,4.8 19.04,4 17.8666667,4 Z M18,18 L6,18 L6,6 L18,6 L18,18 Z" id="Icon-Shape"></path>
            </g>
            <rect id="ViewBox" fill-rule="nonzero" x="0" y="0" width="24" height="24"></rect>
        </g>
    </g>
</svg>